<svg id="Layer_1" data-name="Layer 1" xmlns="http://www.w3.org/2000/svg" width="198.96" height="133.36" viewBox="0 0 198.96 133.36"><defs><style>.cls-1,.cls-2{fill:#0d66b5;}.cls-2{isolation:isolate;font-size:51.98px;font-family:Georgia, Georgia;letter-spacing:0.09em;}</style></defs><title>brigham-young-university-idaho-logo-freelogovectors.net_</title><g id="zDEW2v.tif"><path class="cls-1" d="M.94,33.32H3.32c12.32,0,24.64,0,37,0A33.31,33.31,0,0,1,50.81,35c5.45,1.82,8,5.78,8.22,11.47.24,5.5-1.9,9.52-6.74,12-.29.15-.56.34-.89.54.63.81,1.58.85,2.35,1.21,4.41,2.06,6.6,5.58,7,10.36,1.06,12.37-7.21,17-16.34,17.7-14.28,1.16-28.62.28-42.93.45a2.21,2.21,0,0,1-.61-.21C1,88.24,1,88,1,88,5.68,86.89,5.68,86.89,5.68,82V38.83c0-3.65,0-3.69-3.76-4.58C1.55,34.16,1.09,34.14.94,33.32ZM29,77.81c3,0,6,.29,8.79-1,3-1.41,4-3.55,3.39-7.44-.33-2.22-2.36-4-5-4.52-3.87-.78-7.78-.33-11.67-.49-1.17-.06-1.38.51-1.36,1.5.05,2.08,0,4.16,0,6.24C23.25,77.81,23.25,77.81,29,77.81Zm1.19-34c-2.14,0-3.89,0-5.63,0-.9,0-1.38.19-1.37,1.23.05,3.16,0,6.32,0,9.48,0,.74.11,1.3,1.05,1.28,4-.12,8,.43,11.9-.58a5.63,5.63,0,0,0,4.15-5.77c0-3.27-.88-4.27-4.08-5.26C34.12,43.54,32,44.06,30.23,43.84Z" transform="translate(-0.52 -33.32)"/><path class="cls-1" d="M133.57,33.39h25.67c.12.26.08.47-.19.57-4.25,1.56-4.25,1.56-4.26,6q0,12.12,0,24.23a17.89,17.89,0,0,0,.76,5.65c1.65,5.19,6.54,7.84,12.55,6.9,4.94-.78,8.51-4.94,8.57-10.42.11-9.66,0-19.31.06-29,0-1.67-.92-2.37-2.21-2.92-.72-.3-1.67,0-2.47-1.14h27.48c-.09.31-.09.56-.17.59-4.71,1.55-4.27.4-4.33,6.42-.1,9.07.21,18.14-.19,27.21-.5,11.39-7.78,18.72-17.95,20.87-9.1,1.93-18.15,2-26.91-1.55S137,76.66,136.74,67.58c-.3-9.65-.12-19.32-.09-29C136.66,36.23,136.17,34.32,133.57,33.39Z" transform="translate(-0.52 -33.32)"/><path class="cls-1" d="M61.08,33.33H84c1.1,0,2,.1,1.48,1.71-.45,1.31.5,2.38,1.08,3.43,2.91,5.24,6.51,10,9.88,15.21,3.41-5.37,7.11-10.39,10.15-15.84,1.52-2.71,1.36-3.09-1.75-4.4h25.54c-2.9,1.08-4.32,3.61-5.91,6C118.69,47.94,113,56.5,107.19,65a5.37,5.37,0,0,0-1,3.23c0,5.08.2,10.17,0,15.23-.13,2.82,1.06,4,3.55,4.31a1.48,1.48,0,0,1,1.16.63H81.65c0-.12,0-.37,0-.38,4.51-1.18,4.52-1.18,4.52-6s0-9.33,0-14a5.22,5.22,0,0,0-1-3.21q-9-13.17-17.84-26.41C65.83,36.11,64.2,34,60.91,34,61,33.76,61,33.55,61.08,33.33Z" transform="translate(-0.52 -33.32)"/><path class="cls-1" d="M187.68,101.77c-.83,0-1.66-.13-2.49-.13H6.48c-.91,0-1.82.09-2.73.14-1-.39-2.26.17-3.23-1H186.63c2.5,0,5,0,7.49,0l-.18.83-1.27.1a7.53,7.53,0,0,0-3,0Z" transform="translate(-0.52 -33.32)"/></g><text class="cls-2" transform="translate(0.35 117.6)">IDAHO</text></svg>